<svg width="30" height="30" viewBox="0 0 30 30" fill="none" xmlns="http://www.w3.org/2000/svg">
<path d="M21.2956 0H8.71934C3.25662 0 0 3.255 0 8.715V21.27C0 26.745 3.25662 30 8.71934 30H21.2806C26.7433 30 29.9999 26.745 29.9999 21.285V8.715C30.015 3.255 26.7583 0 21.2956 0ZM17.8889 21.195H10.5052C9.88993 21.195 9.37967 20.685 9.37967 20.07C9.37967 19.455 9.88993 18.945 10.5052 18.945H17.8889C19.8099 18.945 21.3857 17.385 21.3857 15.45C21.3857 13.515 19.8249 11.955 17.8889 11.955H10.2801L10.6703 12.345C11.1055 12.795 11.1055 13.5 10.6553 13.95C10.4302 14.175 10.1451 14.28 9.85991 14.28C9.57477 14.28 9.28963 14.175 9.06452 13.95L6.70834 11.58C6.27313 11.145 6.27313 10.425 6.70834 9.99L9.06452 7.635C9.49973 7.2 10.2201 7.2 10.6553 7.635C11.0905 8.07 11.0905 8.79 10.6553 9.225L10.1601 9.72H17.8889C21.0555 9.72 23.6368 12.3 23.6368 15.465C23.6368 18.63 21.0555 21.195 17.8889 21.195Z" fill="#282626"/>
</svg>
