<svg width="30" height="30" viewBox="0 0 30 30" fill="none" xmlns="http://www.w3.org/2000/svg">
<rect width="30" height="30" rx="10" fill="#FF6200"/>
<path d="M23.7532 25C21.5362 25 19.3088 24.4845 17.0712 23.4535C14.8337 22.4225 12.7779 20.9682 10.9038 19.0906C9.0299 17.2127 7.57745 15.1569 6.54647 12.9229C5.51549 10.6892 5 8.46382 5 6.24677C5 5.89049 5.11765 5.59363 5.35294 5.35618C5.58824 5.11873 5.88235 5 6.23529 5H10.0724C10.3694 5 10.6315 5.09696 10.8585 5.29088C11.0856 5.48461 11.23 5.72402 11.2918 6.00912L11.9662 9.47059C12.0128 9.79176 12.003 10.0677 11.9368 10.2985C11.8703 10.5293 11.7511 10.7231 11.5791 10.88L8.86206 13.525C9.29931 14.3258 9.79892 15.0833 10.3609 15.7976C10.9226 16.5118 11.5309 17.1938 12.1856 17.8438C12.8311 18.4895 13.5174 19.0891 14.2444 19.6426C14.9715 20.1962 15.7566 20.7113 16.5997 21.1879L19.2397 18.525C19.4238 18.3334 19.6468 18.1991 19.9085 18.1221C20.1701 18.0452 20.442 18.0264 20.7241 18.0656L23.9909 18.7309C24.2879 18.8093 24.5304 18.9609 24.7182 19.1856C24.9061 19.4103 25 19.6652 25 19.9503V23.7647C25 24.1176 24.8813 24.4118 24.6438 24.6471C24.4064 24.8824 24.1095 25 23.7532 25ZM8.02706 11.8553L10.1268 9.84618C10.1644 9.81598 10.1889 9.77451 10.2003 9.72176C10.2117 9.66902 10.2098 9.62 10.1947 9.57471L9.68324 6.94559C9.66814 6.88539 9.64177 6.8402 9.60412 6.81C9.56647 6.7798 9.51745 6.76471 9.45706 6.76471H6.94118C6.89588 6.76471 6.85814 6.7798 6.82794 6.81C6.79794 6.8402 6.78294 6.87794 6.78294 6.92324C6.84314 7.72716 6.97471 8.54382 7.17765 9.37324C7.38039 10.2028 7.66353 11.0302 8.02706 11.8553ZM18.2624 22.0226C19.0422 22.3862 19.8555 22.6641 20.7024 22.8565C21.5494 23.0486 22.3409 23.1628 23.0768 23.1991C23.1221 23.1991 23.1598 23.184 23.19 23.1538C23.2202 23.1236 23.2353 23.0859 23.2353 23.0406V20.5656C23.2353 20.5052 23.2202 20.4562 23.19 20.4185C23.1598 20.3809 23.1146 20.3545 23.0544 20.3394L20.5838 19.8371C20.5385 19.822 20.4989 19.8201 20.465 19.8315C20.4311 19.8428 20.3952 19.8674 20.3574 19.905L18.2624 22.0226Z" fill="#8D3600"/>
</svg>
