<svg width="30" height="30" viewBox="0 0 30 30" fill="none" xmlns="http://www.w3.org/2000/svg">
<rect width="30" height="30" rx="10" fill="#D43377"/>
<path d="M14.0388 5.00019C13.4826 4.99929 12.9861 5.0016 12.5402 5.00789L11.3446 5.03998C10.9904 5.05539 10.6774 5.07548 10.3965 5.10147C10.2561 5.11444 10.1236 5.12895 9.99801 5.14493C9.87851 5.16002 9.75933 5.17759 9.64055 5.19763C9.52746 5.21689 9.42014 5.23768 9.31724 5.26028C9.21434 5.28287 9.11605 5.30726 9.02122 5.33345C8.92852 5.35906 8.83654 5.38723 8.74539 5.41793C8.65607 5.44809 8.56893 5.48006 8.48288 5.51421C8.31078 5.58251 8.14291 5.65914 7.97004 5.74503C7.83702 5.81114 7.71413 5.87809 7.59739 5.94896C7.48065 6.01982 7.37006 6.09467 7.26178 6.17618C7.15026 6.26055 7.04278 6.35012 6.93968 6.44462C6.83191 6.54296 6.72183 6.65112 6.60746 6.77198C6.46375 6.92302 6.33887 7.06385 6.22802 7.20205C6.1726 7.27111 6.1207 7.33941 6.07181 7.40809C6.02347 7.47578 5.97725 7.54496 5.93322 7.61555C5.88965 7.68551 5.84839 7.75676 5.80892 7.83007C5.76884 7.90463 5.73095 7.98037 5.69532 8.05717C5.62241 8.21404 5.55436 8.38299 5.48644 8.57157C5.43606 8.71099 5.39094 8.85226 5.35118 8.99509C5.31063 9.14106 5.27455 9.29376 5.24239 9.45892C5.21022 9.62407 5.18216 9.80168 5.15749 9.9981C5.13091 10.2134 5.10967 10.4293 5.0938 10.6457C5.07586 10.8836 5.061 11.1453 5.04882 11.4367L5.01999 12.4054L5.00449 13.5863L5 15.0137L5.01313 17.0893L5.05414 18.662L5.08573 19.2762L5.1252 19.7853C5.13785 19.9225 5.15368 20.0593 5.17268 20.1958C5.18998 20.317 5.20856 20.423 5.22855 20.5148C5.26911 20.7014 5.31708 20.8864 5.37233 21.0692C5.42523 21.2442 5.48573 21.4168 5.55365 21.5865C5.62042 21.7528 5.69346 21.9131 5.77291 22.0674C5.85236 22.2217 5.93822 22.37 6.03049 22.5124C6.12275 22.6549 6.22142 22.7915 6.32676 22.9222C6.43198 23.053 6.54389 23.1782 6.66205 23.2973C6.7804 23.4167 6.90521 23.5303 7.03675 23.6383C7.16985 23.7475 7.3082 23.8501 7.4513 23.9458C7.58413 24.0347 7.71554 24.1162 7.84792 24.191C7.98029 24.2657 8.11382 24.3336 8.25106 24.3953C8.38831 24.457 8.52901 24.5125 8.676 24.5624C8.82298 24.6124 8.97611 24.6568 9.13796 24.6962C9.29981 24.7356 9.47114 24.7702 9.65247 24.8004C9.8338 24.8305 10.0276 24.8564 10.2347 24.8787C10.4418 24.901 10.6627 24.9194 10.9001 24.9348C11.1375 24.9502 11.3912 24.9625 11.6638 24.9724C12.085 24.9877 12.7225 24.9966 13.4577 25L15.8377 24.9952L18.0914 24.9635L18.9483 24.9394L19.5066 24.9106C19.6264 24.9009 19.7436 24.8893 19.8568 24.8758C19.9699 24.8622 20.0816 24.8468 20.1902 24.8292C20.2989 24.8116 20.4051 24.792 20.5095 24.7701C20.6127 24.7486 20.7153 24.7246 20.8173 24.6981C20.9183 24.6724 21.0179 24.6432 21.1164 24.6122C21.215 24.5812 21.3125 24.5477 21.4094 24.5117C21.5069 24.4755 21.6035 24.437 21.6992 24.3961C21.7955 24.355 21.8916 24.3111 21.9881 24.2645C22.1363 24.193 22.2556 24.1334 22.3604 24.0752C22.4589 24.021 22.5538 23.9605 22.6445 23.8939C22.7339 23.8279 22.8229 23.7528 22.9254 23.6582C23.0279 23.5636 23.1441 23.4496 23.2879 23.3054C23.4143 23.1788 23.5209 23.0688 23.6129 22.9688C23.7048 22.8687 23.7823 22.7786 23.8502 22.6918C23.915 22.6095 23.9753 22.5237 24.0309 22.435C24.0852 22.3483 24.1351 22.2583 24.1861 22.1585C24.2627 22.0083 24.3309 21.8692 24.3919 21.735C24.4512 21.6056 24.5054 21.474 24.5543 21.3404C24.6025 21.2078 24.6442 21.0729 24.6793 20.9363C24.7155 20.7957 24.7466 20.6473 24.7735 20.4845C24.8004 20.3217 24.8232 20.1446 24.8429 19.9468C24.8626 19.7489 24.8794 19.5303 24.8942 19.2846L24.9332 18.46L24.9668 17.4345L24.9908 16.2919L25 15.0972L24.9786 12.7508L24.95 11.6999L24.9109 10.7975L24.8622 10.094C24.8445 9.89822 24.8254 9.74404 24.8052 9.6398C24.7828 9.52462 24.7577 9.40997 24.7301 9.29594C24.7032 9.18499 24.6736 9.0747 24.6413 8.96518C24.6099 8.85848 24.5758 8.7526 24.5389 8.64764C24.5025 8.54397 24.464 8.44249 24.4236 8.34319C24.3832 8.24389 24.3395 8.1469 24.294 8.05197C24.2486 7.95703 24.2009 7.86441 24.1508 7.7739C24.1008 7.6834 24.0486 7.59514 23.9941 7.50906C23.9396 7.42298 23.8828 7.33909 23.8237 7.25744C23.7649 7.17605 23.7036 7.09653 23.6398 7.01898C23.5764 6.94186 23.5105 6.86676 23.4423 6.79381C23.3742 6.72094 23.3039 6.65026 23.2313 6.58186C23.1587 6.51343 23.084 6.44719 23.0068 6.38313C22.9294 6.31886 22.85 6.25701 22.7687 6.19769C22.6866 6.13776 22.6027 6.08035 22.517 6.02553C22.4303 5.96994 22.3418 5.91694 22.2519 5.8666C22.1604 5.81542 22.0675 5.76687 21.9732 5.72102C21.8167 5.64483 21.6721 5.57724 21.53 5.51729C21.3904 5.45779 21.248 5.40495 21.1034 5.35894C20.958 5.31304 20.8066 5.27369 20.64 5.23974C20.4734 5.20578 20.2917 5.17748 20.0861 5.1534C19.8805 5.12933 19.6509 5.10988 19.3884 5.09371C19.1258 5.07753 18.8305 5.06482 18.4933 5.05455L17.3472 5.02888L15.8968 5.01174L14.0395 5.00031L14.0388 5.00019ZM15.0035 6.7655L17.6819 6.78078L18.6923 6.80029C18.9706 6.80812 19.1829 6.8173 19.3074 6.82789C19.4695 6.84156 19.624 6.8587 19.7716 6.87924C19.9134 6.89885 20.0544 6.92323 20.1945 6.95235C20.3291 6.9806 20.4574 7.01269 20.5802 7.04889C20.7031 7.0851 20.8204 7.12566 20.933 7.17053C21.0455 7.2154 21.1532 7.26476 21.2568 7.31881C21.3596 7.37244 21.4594 7.43147 21.556 7.49564C21.6521 7.55951 21.7448 7.62832 21.8347 7.70246C21.9247 7.7766 22.0119 7.85606 22.097 7.94105C22.1869 8.03072 22.2698 8.12206 22.3463 8.21629C22.4224 8.30993 22.4929 8.40808 22.5573 8.51021C22.6224 8.61379 22.6811 8.72129 22.733 8.83212C22.786 8.94509 22.8337 9.06448 22.8765 9.19138C22.9193 9.31828 22.9574 9.45314 22.9912 9.59724C23.0266 9.75002 23.0562 9.90407 23.08 10.0591C23.1056 10.2234 23.1275 10.3986 23.1461 10.5863C23.1647 10.7739 23.1801 10.974 23.1928 11.188C23.2029 11.3597 23.2117 11.5863 23.2192 11.8539L23.238 12.7664L23.2523 15.0014L23.236 17.2343L23.2164 18.1441L23.1894 18.8059C23.1707 19.1157 23.151 19.3762 23.1274 19.6029C23.1156 19.7163 23.1027 19.8211 23.0885 19.9195C23.0752 20.0125 23.0594 20.1051 23.0412 20.1972C23.0245 20.2813 23.0052 20.3647 22.9832 20.4476C22.9621 20.5266 22.9384 20.6049 22.9121 20.6823C22.8856 20.7601 22.8568 20.8371 22.8257 20.9131C22.7928 20.9934 22.7581 21.073 22.7216 21.1517C22.6891 21.222 22.6549 21.2903 22.6188 21.3569C22.5831 21.4228 22.5451 21.4875 22.505 21.5508C22.4653 21.6135 22.4236 21.6744 22.3801 21.7334C22.3367 21.7922 22.2913 21.8494 22.2438 21.9049C22.1965 21.9602 22.1472 22.0137 22.096 22.0654C22.0448 22.117 21.9916 22.1669 21.9365 22.215C21.8814 22.2632 21.8242 22.3094 21.7651 22.354C21.7059 22.3985 21.6448 22.4412 21.5815 22.4822C21.5183 22.5232 21.453 22.5624 21.3857 22.5999C21.3184 22.6374 21.2489 22.6732 21.1775 22.7073C21.1048 22.7419 21.0311 22.7743 20.9565 22.8045C20.8793 22.8357 20.8014 22.8647 20.7226 22.8915C20.5624 22.9462 20.3935 22.9942 20.2156 23.0356C20.0302 23.0785 19.8431 23.1135 19.6548 23.1407C19.5824 23.1513 19.416 23.1613 19.1777 23.1705L18.2694 23.1958L15.6943 23.2293L12.999 23.2335L11.9405 23.2222L11.2532 23.2008L10.7464 23.1651C10.589 23.1518 10.4427 23.1371 10.3056 23.1203C10.1684 23.1035 10.0408 23.0849 9.92061 23.0638C9.80677 23.0441 9.69361 23.0205 9.58135 22.9932C9.47898 22.9683 9.37766 22.9392 9.27764 22.906C9.18121 22.8739 9.08901 22.8386 8.99931 22.7998C8.90961 22.761 8.82247 22.7184 8.73616 22.6719C8.64985 22.6255 8.56445 22.575 8.47807 22.52C8.41291 22.4785 8.34993 22.4366 8.28932 22.3921C8.2287 22.3476 8.17014 22.3032 8.11376 22.2568C8.05737 22.2103 8.00323 22.1624 7.95101 22.1131C7.89914 22.0641 7.84904 22.0131 7.80082 21.9605C7.75277 21.908 7.70683 21.8539 7.66275 21.798C7.61849 21.7418 7.57633 21.684 7.53633 21.6246C7.49574 21.5644 7.45734 21.5028 7.42119 21.4398C7.38467 21.3762 7.34994 21.3105 7.31694 21.2427C7.28339 21.1736 7.25209 21.1035 7.22308 21.0324C7.1936 20.96 7.16567 20.8853 7.1394 20.8081C7.08686 20.6537 7.04072 20.4894 7.00062 20.3142C6.96051 20.1389 6.92629 19.9528 6.89733 19.7544C6.86837 19.5561 6.84505 19.3458 6.82646 19.1223C6.81275 18.9577 6.80186 18.7012 6.79353 18.3777L6.7761 17.2271L6.78251 14.2941L6.83294 11.4913L6.87138 10.5038L6.89316 10.1774C6.90073 10.0903 6.90854 10.0257 6.91655 9.98693C6.94295 9.85939 6.96954 9.74071 6.99703 9.62959C7.0227 9.52477 7.05127 9.42068 7.08269 9.31745C7.11255 9.22001 7.14401 9.12873 7.17765 9.04227C7.21009 8.95851 7.24624 8.87625 7.286 8.79572C7.32482 8.71741 7.36654 8.64244 7.41184 8.56946C7.45714 8.49647 7.50602 8.42567 7.55933 8.35526C7.61264 8.28484 7.67005 8.21533 7.73252 8.14485C7.79499 8.07437 7.86246 8.00318 7.93563 7.92982C8.02091 7.8439 8.10971 7.76156 8.20179 7.68301C8.28874 7.6089 8.37942 7.5393 8.47346 7.47446C8.56592 7.41027 8.66075 7.35315 8.75948 7.30064C8.85822 7.24813 8.96086 7.2007 9.06883 7.15801C9.17679 7.11533 9.2902 7.07714 9.41034 7.04247C9.53655 7.00701 9.66416 6.97675 9.79285 6.95178C9.92817 6.9252 10.0719 6.90203 10.2253 6.88181C10.3788 6.86159 10.5421 6.84413 10.7166 6.82898C10.8383 6.81846 11.0481 6.80908 11.3243 6.80119L12.3296 6.78129L15.0039 6.76492L15.0035 6.7655Z" fill="white"/>
<path d="M15.0087 9.89557C14.8329 9.89557 14.6589 9.90456 14.4875 9.92215C14.3161 9.93973 14.1471 9.96579 13.9809 10C13.8148 10.0342 13.6516 10.0766 13.4917 10.1266L13.0223 10.2993L12.5754 10.5154L12.1536 10.7725L11.7596 11.0678L11.396 11.3987L11.0654 11.7626L10.7703 12.1569L10.5134 12.579L10.2974 13.0262C10.2325 13.1792 10.1748 13.336 10.1248 13.4961C10.0749 13.6562 10.0326 13.8196 9.99835 13.9859C9.96414 14.1521 9.93813 14.3212 9.92051 14.4928C9.90289 14.6644 9.89404 14.8385 9.89404 15.0145C9.89404 15.1905 9.90301 15.3646 9.92051 15.5361C9.9379 15.7064 9.96388 15.8756 9.99835 16.0432C10.0326 16.2101 10.0749 16.3728 10.1248 16.5329C10.1748 16.693 10.2325 16.8498 10.2974 17.0028L10.5134 17.45L10.7703 17.872L11.0654 18.2664L11.396 18.6304L11.7596 18.9612L12.1536 19.2565L12.5754 19.5136L13.0223 19.7298L13.4917 19.9024L13.9809 20.029C14.1484 20.0635 14.3174 20.0895 14.4875 20.1069C14.6607 20.1246 14.8347 20.1335 15.0087 20.1335C15.1846 20.1335 15.3586 20.1245 15.5299 20.1069C15.7 20.0895 15.869 20.0635 16.0365 20.029L16.5258 19.9024L16.9952 19.7298L17.442 19.5136L17.8638 19.2565L18.2579 18.9612L18.6216 18.6304L18.9522 18.2664L19.2472 17.872L19.5042 17.45L19.7201 17.0028L19.8927 16.5329C19.9427 16.3728 19.985 16.2094 20.0192 16.0432L20.097 15.5361C20.1146 15.3645 20.1236 15.1904 20.1236 15.0144C20.1236 14.8384 20.1146 14.6643 20.097 14.4928C20.0796 14.3226 20.0537 14.1534 20.0192 13.9858C19.985 13.8189 19.9427 13.6562 19.8927 13.496L19.7201 13.0262L19.5042 12.579L19.2472 12.1569L18.9522 11.7626L18.6216 11.3986L18.2579 11.0677L17.8638 10.7725L17.442 10.5154L16.9952 10.2992L16.5258 10.1265L16.0365 9.99994L15.5299 9.92208C15.3567 9.90436 15.1828 9.8955 15.0087 9.89551V9.89557ZM15.0087 11.6624C15.125 11.6624 15.2398 11.6682 15.3528 11.6796L15.686 11.7301L16.0078 11.8123L16.316 11.9244L16.609 12.065L16.8845 12.2322L17.1421 12.4246L17.3796 12.6404L17.5952 12.878L17.7874 13.1358L17.9545 13.4122L18.0948 13.7055C18.137 13.8059 18.1744 13.9088 18.2069 14.014C18.2395 14.1192 18.2668 14.2268 18.289 14.3363C18.3111 14.4458 18.3274 14.5572 18.3394 14.6704L18.3565 15.0148C18.3565 15.1312 18.3508 15.2461 18.3394 15.3593C18.328 15.4725 18.3112 15.584 18.289 15.6934C18.2667 15.8028 18.2393 15.9104 18.2069 16.0156L18.0948 16.3241L17.9545 16.6175L17.7874 16.8938L17.5952 17.1516L17.3796 17.3893L17.1421 17.6051L16.8845 17.7974L16.609 17.9647L16.316 18.1052L16.0078 18.2174L15.686 18.2995L15.3528 18.35C15.2385 18.3615 15.1236 18.3672 15.0087 18.3672C14.8937 18.3672 14.7788 18.3615 14.6645 18.35L14.3313 18.2995C14.2219 18.2773 14.1145 18.2498 14.0094 18.2174L13.7012 18.1052L13.4082 17.9647L13.1327 17.7974L12.8751 17.6051L12.6376 17.3893L12.422 17.1516L12.2298 16.8938L12.0627 16.6175L11.9224 16.3241L11.8103 16.0156L11.7283 15.6934L11.6778 15.3593C11.6664 15.2448 11.6606 15.1299 11.6607 15.0148C11.6606 14.8998 11.6664 14.7848 11.6778 14.6704C11.6892 14.5572 11.706 14.4457 11.7283 14.3363C11.7503 14.2276 11.7777 14.1201 11.8103 14.0141L11.9225 13.7056L12.0628 13.4123L12.2299 13.1359L12.4221 12.8781L12.6377 12.6405L12.8752 12.4247L13.1327 12.2323L13.4083 12.0651L13.7013 11.9245C13.8021 11.8821 13.905 11.8447 14.0095 11.8124L14.3314 11.7302C14.4408 11.708 14.5521 11.6911 14.6646 11.6797C14.779 11.6682 14.8938 11.6625 15.0088 11.6625L15.0087 11.6624Z" fill="white"/>
<path d="M20.3308 8.43939C20.2902 8.4394 20.2496 8.44146 20.2092 8.44555C20.1688 8.44965 20.1286 8.45577 20.0888 8.46391C20.049 8.47204 20.0097 8.48218 19.9709 8.49427C19.9321 8.50638 19.8939 8.52043 19.8565 8.53638C19.8191 8.55235 19.7825 8.57019 19.7469 8.58985C19.7112 8.60947 19.6766 8.63087 19.6431 8.65397C19.6095 8.67711 19.5772 8.70191 19.5461 8.72831C19.5151 8.75467 19.4853 8.78258 19.4571 8.81194C19.4288 8.84132 19.4019 8.8721 19.3767 8.90418C19.3515 8.93626 19.3278 8.9696 19.3059 9.00406C19.284 9.03849 19.2638 9.07401 19.2454 9.11048C19.2269 9.14698 19.2103 9.18439 19.1956 9.22256C19.1809 9.26072 19.1681 9.2996 19.1572 9.33906C19.1463 9.37851 19.1374 9.41849 19.1305 9.45884C19.1236 9.49917 19.1187 9.53983 19.1159 9.58066C19.1138 9.60959 19.1128 9.63858 19.1128 9.66758C19.1128 9.70854 19.1148 9.74948 19.1189 9.79024C19.1229 9.83098 19.129 9.87149 19.1371 9.91162C19.1451 9.95175 19.1552 9.99145 19.1672 10.0306C19.1792 10.0697 19.1931 10.1082 19.209 10.1459C19.2248 10.1836 19.2425 10.2206 19.262 10.2565C19.2814 10.2925 19.3027 10.3274 19.3256 10.3612C19.3485 10.395 19.3731 10.4276 19.3993 10.4589C19.4254 10.4902 19.4531 10.5202 19.4822 10.5488C19.5114 10.5773 19.5419 10.6043 19.5737 10.6298C19.6056 10.6552 19.6386 10.6791 19.6728 10.7012C19.707 10.7233 19.7422 10.7437 19.7784 10.7623C19.8146 10.7809 19.8517 10.7977 19.8895 10.8125C19.9274 10.8273 19.9659 10.8403 20.0051 10.8512C20.0442 10.8621 20.0838 10.8711 20.1239 10.878C20.1639 10.885 20.2042 10.89 20.2447 10.8929C20.2734 10.8949 20.3021 10.896 20.3309 10.896C20.3715 10.896 20.4121 10.8939 20.4525 10.8899C20.4929 10.8858 20.5331 10.8796 20.5729 10.8715C20.6127 10.8634 20.6521 10.8532 20.6908 10.8411C20.7296 10.829 20.7678 10.815 20.8052 10.799C20.8426 10.7831 20.8792 10.7653 20.9148 10.7456C20.9505 10.726 20.9851 10.7046 21.0186 10.6814C21.0522 10.6583 21.0845 10.6335 21.1156 10.6072C21.1466 10.5808 21.1764 10.5528 21.2046 10.5235C21.2329 10.4941 21.2598 10.4633 21.285 10.4312C21.3102 10.3991 21.3339 10.3658 21.3558 10.3314C21.3777 10.2969 21.3979 10.2614 21.4163 10.2249C21.4348 10.1884 21.4514 10.151 21.4661 10.1128C21.4808 10.0746 21.4937 10.0357 21.5045 9.99629C21.5154 9.95683 21.5243 9.91686 21.5312 9.87651C21.5381 9.83617 21.543 9.79551 21.5458 9.75468C21.5479 9.72576 21.5489 9.69677 21.5489 9.66777C21.5489 9.62682 21.5469 9.58591 21.5428 9.54517C21.5388 9.50443 21.5327 9.46392 21.5246 9.42379C21.5166 9.38366 21.5065 9.34396 21.4945 9.30485C21.4825 9.26572 21.4686 9.22722 21.4527 9.1895C21.4369 9.15177 21.4192 9.11485 21.3997 9.0789C21.3803 9.04296 21.3591 9.00802 21.3361 8.97421C21.3132 8.94041 21.2886 8.90778 21.2624 8.87645C21.2362 8.84512 21.2086 8.81513 21.1795 8.78659C21.1503 8.75806 21.1198 8.73103 21.088 8.70558C21.0562 8.68014 21.0231 8.65632 20.9889 8.6342C20.9547 8.61207 20.9195 8.59168 20.8833 8.5731C20.8471 8.55451 20.81 8.53775 20.7722 8.5229C20.7343 8.50807 20.6958 8.49515 20.6566 8.4842C20.6175 8.47324 20.5779 8.46426 20.5378 8.4573C20.4978 8.45035 20.4575 8.44542 20.417 8.44254C20.3883 8.44048 20.3596 8.43946 20.3308 8.43946V8.43939Z" fill="white"/>
</svg>
