<svg width="30" height="30" viewBox="0 0 30 30" fill="none" xmlns="http://www.w3.org/2000/svg">
<g clip-path="url(#clip0_79_49)">
<path d="M30 0H0V30H30V0Z" fill="#59D0F7"/>
<path d="M25 10.4286L21.0436 12.6894C18.8378 13.9498 17.7349 14.5801 16.5669 14.8272C15.5331 15.0458 14.4669 15.0458 13.4331 14.8272C12.2652 14.5801 11.1623 13.9498 8.95644 12.6894L5 10.4286M8.55556 23H21.4444C22.689 23 23.3113 23 23.7867 22.7509C24.2048 22.5318 24.5448 22.1821 24.7578 21.752C25 21.2631 25 20.623 25 19.3429V10.6571C25 9.37703 25 8.73696 24.7578 8.24802C24.5448 7.81793 24.2048 7.46826 23.7867 7.24913C23.3113 7 22.689 7 21.4444 7H8.55556C7.311 7 6.68871 7 6.21336 7.24913C5.79521 7.46826 5.45526 7.81793 5.24221 8.24802C5 8.73696 5 9.37702 5 10.6571V19.3429C5 20.623 5 21.2631 5.24221 21.752C5.45526 22.1821 5.79521 22.5318 6.21336 22.7509C6.68871 23 7.31099 23 8.55556 23Z" stroke="#00728F" stroke-width="2" stroke-linecap="round" stroke-linejoin="round"/>
</g>
<defs>
<clipPath id="clip0_79_49">
<rect width="30" height="30" rx="10" fill="white"/>
</clipPath>
</defs>
</svg>
