<svg width="22" height="22" viewBox="0 0 22 22" fill="none" xmlns="http://www.w3.org/2000/svg">
<path d="M9.94551 3.07767H4.97578C3.92133 3.07767 2.91014 3.49727 2.16454 4.24418C1.41894 4.99109 1 6.00412 1 7.06041V17.0173C1 18.0736 1.41894 19.0866 2.16454 19.8335C2.91014 20.5804 3.92133 21 4.97578 21H15.9092C18.1058 21 18.891 19.2078 18.891 17.0173V12.0388M20.1632 5.46736L10.6809 14.9661C9.73668 15.912 6.93372 16.3502 6.30754 15.7229C5.68135 15.0956 6.10875 12.2878 7.053 11.3419L16.5452 1.83308C16.7793 1.57725 17.0627 1.3716 17.3783 1.22852C17.6939 1.08544 18.0352 1.00788 18.3816 1.00057C18.7279 0.99327 19.0722 1.05634 19.3936 1.18598C19.7149 1.31563 20.0067 1.50919 20.2513 1.75493C20.4959 2.00066 20.6884 2.2935 20.8169 2.61576C20.9454 2.93803 21.0075 3.28304 20.9993 3.62998C20.991 3.97693 20.9126 4.31864 20.769 4.63442C20.6253 4.9502 20.4192 5.23356 20.1632 5.46736Z" stroke="black" stroke-width="1.5" stroke-linecap="round" stroke-linejoin="round"/>
</svg>
