<svg width="30" height="30" viewBox="0 0 30 30" fill="none" xmlns="http://www.w3.org/2000/svg">
<rect width="30" height="30" rx="10" fill="#333D5E"/>
<path fill-rule="evenodd" clip-rule="evenodd" d="M16.9091 8.33333C16.9091 6.49238 18.4964 5 20.4545 5C22.4126 5 24 6.49238 24 8.33333C24 10.1743 22.4126 11.6667 20.4545 11.6667C19.4658 11.6667 18.5723 11.286 17.9299 10.6735L13.0218 13.8295C13.0671 14.0425 13.0909 14.2625 13.0909 14.4872C13.0909 14.9322 12.9978 15.3576 12.829 15.7464L18.2107 19.0858C18.8215 18.6161 19.603 18.3333 20.4545 18.3333C22.4126 18.3333 24 19.8257 24 21.6667C24 23.5076 22.4126 25 20.4545 25C18.4964 25 16.9091 23.5076 16.9091 21.6667C16.9091 21.1845 17.0183 20.7255 17.2147 20.3111L11.8765 16.9987C11.2538 17.5098 10.4382 17.8205 9.54545 17.8205C7.58736 17.8205 6 16.3281 6 14.4872C6 12.6462 7.58736 11.1538 9.54545 11.1538C10.6714 11.1538 11.6737 11.6473 12.3227 12.4152L17.0794 9.35642C16.9688 9.03359 16.9091 8.6896 16.9091 8.33333Z" fill="white"/>
</svg>
