<svg width="30" height="30" viewBox="0 0 30 30" fill="none" xmlns="http://www.w3.org/2000/svg">
<rect width="30" height="30" rx="10" fill="#45D354"/>
<path d="M17.7246 16.1133C17.5488 15.9961 17.373 15.9375 17.1973 16.1719L16.8346 16.6554C16.6093 16.9559 16.3027 17.3359 15.9668 17.168C15.1332 16.7234 13.9832 16.226 12.967 14.676C12.8548 14.5049 12.7355 14.2748 12.8441 14.1014C12.9227 13.9758 13.0189 13.8825 13.099 13.7579L13.2984 13.4478C13.4363 13.2332 13.6199 13.0016 13.5059 12.7734L12.8027 11.0742C12.627 10.6055 12.4512 10.6641 12.2754 10.6641H11.8066C11.6895 10.6641 11.4551 10.7227 11.2207 10.957C9.93164 12.2461 10.459 14.0625 11.3965 15.2344C11.5723 15.4688 12.7441 17.5781 15.2637 18.6914C17.1387 19.5117 17.5488 19.3945 18.0762 19.2773C18.4181 19.2463 18.76 19.0833 19.0494 18.8584C19.5376 18.479 19.9371 17.877 19.8612 17.2634C19.8521 17.1902 19.8261 17.1347 19.7754 17.1094M15.1465 22.6172C13.5385 22.6172 12.193 22.0397 11.479 21.6577C11.1194 21.4654 10.6959 21.3896 10.3017 21.4942C9.2991 21.7602 8.36494 20.8566 8.61653 19.8503C8.70791 19.4848 8.64309 19.0983 8.4753 18.761C8.12845 18.0636 7.58789 16.7278 7.58789 15.1758C7.58789 10.957 11.0449 7.44141 15.3223 7.44141C19.3066 7.44141 22.7051 10.5469 22.7051 14.8828C22.7051 19.1016 19.3066 22.5586 15.1465 22.6172ZM5.83008 24.3164L6.93623 24.0099C9.35242 23.3403 11.9268 23.843 14.4307 23.9734C14.7039 23.9876 14.9782 23.9897 15.2529 23.9796C16.8342 23.9214 18.3741 23.4588 19.7258 22.6361C21.0774 21.8134 22.1956 20.6579 22.9736 19.2801C23.7516 17.9022 24.1635 16.3479 24.1699 14.7656C24.1699 9.72656 20.1855 5.68359 15.1465 5.68359C13.5291 5.68773 11.9411 6.11551 10.5405 6.92432C9.1399 7.73314 7.97563 8.89476 7.16364 10.2935C6.35165 11.6923 5.92027 13.2793 5.91246 14.8967C5.90466 16.514 6.32069 18.1052 7.11914 19.5117" fill="white"/>
</svg>
