<svg width="51" height="19" viewBox="0 0 51 19" fill="none" xmlns="http://www.w3.org/2000/svg">
<path d="M0.383118 2.928C0.383118 2.32 0.567118 1.848 0.935118 1.512C1.31912 1.16 1.84712 0.984001 2.51912 0.984001L11.8311 15.144L11.9991 15L11.3031 13.848V0.984001C12.0391 0.984001 12.5911 1.144 12.9591 1.464C13.3431 1.784 13.5351 2.248 13.5351 2.856V16.44C13.5351 16.952 13.3511 17.376 12.9831 17.712C12.6311 18.048 12.1751 18.216 11.6151 18.216L2.08712 3.744L1.91912 3.888L2.61512 5.04V16.344C2.61512 16.952 2.42312 17.416 2.03912 17.736C1.67112 18.056 1.11912 18.216 0.383118 18.216V2.928Z" fill="#1C1B1F"/>
<path d="M21.7306 18.216C20.7546 18.216 19.8826 18.032 19.1146 17.664C18.3466 17.28 17.7466 16.76 17.3146 16.104C16.8826 15.432 16.6666 14.68 16.6666 13.848V10.296C16.6666 9.448 16.8906 8.68 17.3386 7.992C17.8026 7.304 18.4186 6.768 19.1866 6.384C19.9706 5.984 20.8186 5.784 21.7306 5.784C22.6426 5.784 23.4746 5.976 24.2266 6.36C24.9946 6.744 25.5946 7.272 26.0266 7.944C26.4746 8.616 26.6986 9.376 26.6986 10.224V11.76C26.6986 12.016 26.6026 12.232 26.4106 12.408C26.2186 12.584 25.9866 12.672 25.7146 12.672H18.7066V13.752C18.7066 14.568 18.9626 15.224 19.4746 15.72C20.0026 16.216 20.7546 16.464 21.7306 16.464C22.7066 16.464 23.4506 16.248 23.9626 15.816C24.4746 15.384 24.7306 14.8 24.7306 14.064C25.2106 14.032 25.6106 14.128 25.9306 14.352C26.2666 14.56 26.4346 14.872 26.4346 15.288C26.4346 15.8 26.2106 16.28 25.7626 16.728C25.3306 17.176 24.7546 17.536 24.0346 17.808C23.3146 18.08 22.5466 18.216 21.7306 18.216ZM24.7546 11.04V10.224C24.7546 9.424 24.4746 8.776 23.9146 8.28C23.3706 7.768 22.6426 7.512 21.7306 7.512C20.8186 7.512 20.0826 7.768 19.5226 8.28C18.9786 8.776 18.7066 9.424 18.7066 10.224V11.04H24.7546Z" fill="#1C1B1F"/>
<path d="M29.0629 18.216C28.8549 18.216 28.6309 18.176 28.3909 18.096C28.1509 18.032 27.9509 17.92 27.7909 17.76L32.2069 11.688L28.2949 6.144C28.4229 6.032 28.5989 5.944 28.8229 5.88C29.0629 5.816 29.2789 5.784 29.4709 5.784C30.0789 5.784 30.5269 6 30.8149 6.432L33.3109 10.152L32.8549 10.8L32.9749 10.896L36.0229 6.432C36.1669 6.224 36.3589 6.064 36.5989 5.952C36.8549 5.84 37.1269 5.784 37.4149 5.784C37.6069 5.784 37.8149 5.816 38.0389 5.88C38.2629 5.944 38.4389 6.032 38.5669 6.144L34.6309 11.688L39.0229 17.76C38.8789 17.92 38.6949 18.032 38.4709 18.096C38.2629 18.176 38.0629 18.216 37.8709 18.216C37.6149 18.216 37.3589 18.16 37.1029 18.048C36.8469 17.952 36.6629 17.816 36.5509 17.64L33.4069 13.056L30.2869 17.64C30.1589 17.832 29.9829 17.976 29.7589 18.072C29.5349 18.168 29.3029 18.216 29.0629 18.216Z" fill="#1C1B1F"/>
<path d="M45.0212 18.216C44.0452 18.216 43.1572 18.032 42.3572 17.664C41.5732 17.296 40.9572 16.8 40.5092 16.176C40.0772 15.536 39.8612 14.824 39.8612 14.04V10.104C39.8612 9.304 40.0772 8.576 40.5092 7.92C40.9572 7.264 41.5732 6.744 42.3572 6.36C43.1412 5.976 44.0292 5.784 45.0212 5.784C46.0132 5.784 46.9012 5.976 47.6852 6.36C48.4852 6.744 49.1012 7.264 49.5332 7.92C49.9812 8.576 50.2052 9.304 50.2052 10.104V14.04C50.2052 14.824 49.9812 15.536 49.5332 16.176C49.0852 16.8 48.4692 17.296 47.6852 17.664C46.9012 18.032 46.0132 18.216 45.0212 18.216ZM45.0212 16.416C45.9812 16.416 46.7412 16.192 47.3012 15.744C47.8772 15.28 48.1652 14.68 48.1652 13.944V10.176C48.1652 9.408 47.8772 8.784 47.3012 8.304C46.7412 7.824 45.9812 7.584 45.0212 7.584C44.0772 7.584 43.3172 7.824 42.7412 8.304C42.1652 8.784 41.8772 9.408 41.8772 10.176V13.944C41.8772 14.68 42.1572 15.28 42.7172 15.744C43.2932 16.192 44.0612 16.416 45.0212 16.416Z" fill="#1C1B1F"/>
</svg>
