<svg width="30" height="30" viewBox="0 0 30 30" fill="none" xmlns="http://www.w3.org/2000/svg">
<path fill-rule="evenodd" clip-rule="evenodd" d="M30 15C30 23.2842 23.2842 30 15 30C6.71573 30 0 23.2842 0 15C0 6.71573 6.71573 0 15 0C23.2842 0 30 6.71573 30 15ZM15 23.625C15.6213 23.625 16.125 23.1213 16.125 22.5V13.5C16.125 12.8787 15.6213 12.375 15 12.375C14.3787 12.375 13.875 12.8787 13.875 13.5V22.5C13.875 23.1213 14.3787 23.625 15 23.625ZM15 7.5C15.8285 7.5 16.5 8.17158 16.5 9C16.5 9.82842 15.8285 10.5 15 10.5C14.1716 10.5 13.5 9.82842 13.5 9C13.5 8.17158 14.1716 7.5 15 7.5Z" fill="#282626" stroke="black" stroke-width="0.00064"/>
</svg>
