<svg width="20" height="21" viewBox="0 0 20 21" fill="none" xmlns="http://www.w3.org/2000/svg">
<path fill-rule="evenodd" clip-rule="evenodd" d="M8.51367 0.25002H11.9864C12.2087 0.249876 12.4023 0.249753 12.5851 0.278912C13.3074 0.394092 13.9324 0.843999 14.2703 1.49189C14.3558 1.65588 14.4169 1.83934 14.487 2.04994L14.6017 2.39343C14.6212 2.45157 14.6267 2.46803 14.6313 2.48099C14.8113 2.97752 15.2775 3.31317 15.806 3.32655C15.82 3.3269 15.8369 3.32696 15.8987 3.32696H18.9797C19.4051 3.32696 19.75 3.67135 19.75 4.09619C19.75 4.52103 19.4051 4.86543 18.9797 4.86543H1.52027C1.09486 4.86543 0.75 4.52103 0.75 4.09619C0.75 3.67135 1.09486 3.32696 1.52027 3.32696H4.60141C4.66309 3.32696 4.6801 3.3269 4.694 3.32655C5.22256 3.31317 5.68885 2.97755 5.8687 2.48102C5.87343 2.46796 5.87886 2.45186 5.89837 2.39343L6.01299 2.04996C6.08313 1.83937 6.14426 1.65588 6.22977 1.49189C6.56759 0.843999 7.19264 0.394092 7.91494 0.278912C8.09777 0.249753 8.29142 0.249876 8.51367 0.25002ZM7.17725 3.32696C7.23016 3.22335 7.27704 3.11568 7.31737 3.00434C7.32961 2.97052 7.34163 2.93453 7.35706 2.8883L7.45955 2.5812C7.55319 2.30068 7.57475 2.24347 7.59614 2.20245C7.70875 1.98648 7.9171 1.83652 8.15787 1.79812C8.20361 1.79083 8.26472 1.7885 8.56081 1.7885H11.9392C12.2353 1.7885 12.2965 1.79083 12.3422 1.79812C12.5829 1.83652 12.7913 1.98648 12.904 2.20245C12.9253 2.24347 12.9469 2.30067 13.0405 2.5812L13.143 2.88811L13.1827 3.00436C13.2231 3.11569 13.2699 3.22335 13.3228 3.32696H7.17725Z" fill="black"/>
<path d="M4.00065 6.60914C3.97236 6.18525 3.60532 5.86453 3.18085 5.89278C2.75639 5.92104 2.43523 6.28758 2.46353 6.71148L2.9395 13.8415C3.02731 15.1571 3.09824 16.2198 3.26458 17.0537C3.43753 17.9207 3.73169 18.6449 4.33927 19.2126C4.94685 19.7802 5.68996 20.0252 6.5677 20.1398C7.41193 20.2501 8.47837 20.2501 9.79871 20.25H10.7014C12.0217 20.2501 13.0882 20.2501 13.9325 20.1398C14.8102 20.0252 15.5533 19.7802 16.1609 19.2126C16.7685 18.6449 17.0626 17.9207 17.2356 17.0537C17.402 16.2199 17.4728 15.1571 17.5606 13.8415L18.0367 6.71148C18.0649 6.28758 17.7437 5.92104 17.3193 5.89278C16.8948 5.86453 16.5278 6.18525 16.4995 6.60914L16.0271 13.6852C15.9349 15.0676 15.8691 16.0294 15.7247 16.7532C15.5846 17.4551 15.3892 17.8267 15.1084 18.0891C14.8276 18.3515 14.4433 18.5215 13.7326 18.6143C12.9999 18.71 12.0345 18.7116 10.6472 18.7116H9.85294C8.46564 18.7116 7.50018 18.71 6.76751 18.6143C6.05681 18.5215 5.67254 18.3515 5.39174 18.0891C5.11094 17.8267 4.91546 17.4551 4.77542 16.7532C4.63107 16.0294 4.56531 15.0676 4.47302 13.6852L4.00065 6.60914Z" fill="black"/>
<path d="M7.60579 8.45903C8.02908 8.41667 8.4066 8.72518 8.44891 9.14785L8.96242 14.2761C9.00473 14.6988 8.69591 15.0757 8.27257 15.118C7.84929 15.1603 7.47183 14.8518 7.4295 14.4292L6.91599 9.30098C6.87367 8.87821 7.1825 8.50128 7.60579 8.45903Z" fill="black"/>
<path d="M12.8942 8.45903C13.3175 8.50128 13.6263 8.87821 13.584 9.30098L13.0705 14.4292C13.0282 14.8518 12.6507 15.1603 12.2274 15.118C11.8041 15.0757 11.4953 14.6988 11.5376 14.2761L12.0511 9.14785C12.0934 8.72518 12.4709 8.41667 12.8942 8.45903Z" fill="black"/>
</svg>
